<svg viewBox="0 0 128 128" xmlns="http://www.w3.org/2000/svg">
  <g fill="#fff" stroke="currentColor" stroke-width="4" stroke-linecap="round" stroke-linejoin="round">
    <path d="M49 35h39c7 0 12 5 12 12v34c0 7-5 12-12 12H49Z"/>
    <rect x="25" y="48" width="25" height="32" rx="5"/>
    <rect x="13" y="44" width="14" height="40" rx="5"/>
    <rect x="70" y="24" width="21" height="11" rx="3"/>
    <path fill="none" d="M27 52h22M27 76h22M38 52v24"/>
    <circle cx="71" cy="55" r="6"/>
    <circle cx="85" cy="55" r="10"/>
    <rect x="68" y="70" width="21" height="13" rx="2"/>
    <path fill="none" d="M56 93 48 106M92 93l9 13"/>
  </g>
</svg>
