<svg viewBox="0 0 128 128" xmlns="http://www.w3.org/2000/svg">
  <g fill="#fff" stroke="currentColor" stroke-width="7" stroke-linecap="round" stroke-linejoin="round">
    <path d="M55 33h31c7 0 12 5 12 12v21h8v19h-8v22c0 7-5 12-12 12H62c-7 0-12-5-12-12V88h-7V73l7-7V45c0-7 5-12 12-12Z"/>
    <rect x="69" y="24" width="16" height="13" rx="2"/>
    <rect x="24" y="50" width="29" height="31" rx="3"/>
    <rect x="9" y="44" width="17" height="43" rx="5"/>
    <path fill="none" d="M26 51h26M26 80h26M38 51v29"/>
    <rect x="17" y="12" width="14" height="47" rx="7" transform="rotate(-45 24 35.5)"/>
    <rect x="99" y="12" width="14" height="47" rx="7" transform="rotate(45 106 35.5)"/>
    <path fill="none" d="M49 50 30 31M98 49 118 29"/>
    <circle cx="67" cy="52" r="5"/>
    <circle cx="82" cy="52" r="10"/>
    <rect x="73" y="72" width="25" height="15" rx="2"/>
    <rect x="108" y="72" width="8" height="26" rx="3"/>
    <circle cx="79" cy="80" r="3"/>
    <path fill="none" d="M91 77h6M91 84h6"/>
    <circle cx="73" cy="101" r="12"/>
    <path fill="none" d="M73 89v6M73 107v6M61 101h6M79 101h6M64 92l4 5M82 92l-5 5M64 110l4-5M82 110l-5-5"/>
    <rect x="67" y="119" width="13" height="6" rx="3"/>
  </g>
</svg>
