<svg xmlns="http://www.w3.org/2000/svg" viewBox="0 0 220 220" role="img" aria-labelledby="title">
  <title>Captain's Trail Logo</title>
  <defs>
    <linearGradient id="ring" x1="0" y1="0" x2="1" y2="1">
      <stop offset="0" stop-color="#f9df8d"/>
      <stop offset=".5" stop-color="#c78328"/>
      <stop offset="1" stop-color="#6b3818"/>
    </linearGradient>
  </defs>
  <circle cx="110" cy="110" r="102" fill="#071827"/>
  <circle cx="110" cy="110" r="90" fill="#123248" stroke="url(#ring)" stroke-width="8"/>
  <path d="M110 35l14 61 61 14-61 14-14 61-14-61-61-14 61-14z" fill="#f6ce6a"/>
  <path d="M83 139c13 23 41 31 54 0 20 16 26 31 26 46H57c0-15 7-30 26-46z" fill="#0c1825"/>
  <path d="M73 94c19-40 55-55 93-39-20 9-33 27-42 52-17-12-34-15-51-13z" fill="#d33f2f" stroke="#671f18" stroke-width="5"/>
  <circle cx="90" cy="136" r="8" fill="#fbe6a1"/>
  <circle cx="130" cy="136" r="8" fill="#fbe6a1"/>
  <path d="M101 158h18" stroke="#fbe6a1" stroke-width="6" stroke-linecap="round"/>
</svg>
