<svg xmlns="http://www.w3.org/2000/svg" viewBox="0 0 900 480">
  <defs>
    <linearGradient id="redBody" x1="0" y1="0" x2="0" y2="1">
      <stop offset="0%" stop-color="#ef4b4b"/>
      <stop offset="100%" stop-color="#c92424"/>
    </linearGradient>
    <linearGradient id="greyTop" x1="0" y1="0" x2="0" y2="1">
      <stop offset="0%" stop-color="#9da4ad"/>
      <stop offset="100%" stop-color="#6f7882"/>
    </linearGradient>
  </defs>
  <g>
    <rect x="110" y="125" rx="24" ry="24" width="620" height="230" fill="url(#redBody)" stroke="#1c1c1c" stroke-width="10"/>
    <rect x="135" y="40" rx="20" ry="20" width="560" height="145" fill="url(#greyTop)" stroke="#1c1c1c" stroke-width="10"/>
    <path d="M95 155 L145 120 L145 355 L95 355 Z" fill="#df3d3d" stroke="#1c1c1c" stroke-width="10"/>
    <path d="M110 125 L145 90 L145 125 Z" fill="#9aa1a8" stroke="#1c1c1c" stroke-width="10"/>
    <rect x="115" y="205" width="72" height="112" fill="#161616" opacity="0.78"/>
    <rect x="164" y="235" width="20" height="82" fill="#4f4f4f"/>
    <g fill="#caecff" stroke="#2b2b2b" stroke-width="6" opacity="0.92">
      <rect x="165" y="66" width="82" height="52" rx="8"/>
      <rect x="255" y="66" width="82" height="52" rx="8"/>
      <rect x="345" y="66" width="82" height="52" rx="8"/>
      <rect x="435" y="66" width="82" height="52" rx="8"/>
      <rect x="525" y="66" width="82" height="52" rx="8"/>
      <rect x="165" y="135" width="82" height="58" rx="8"/>
      <rect x="255" y="135" width="82" height="58" rx="8"/>
      <rect x="345" y="135" width="82" height="58" rx="8"/>
      <rect x="435" y="135" width="82" height="58" rx="8"/>
      <rect x="525" y="135" width="82" height="58" rx="8"/>
      <rect x="615" y="135" width="85" height="58" rx="8"/>
      <rect x="255" y="214" width="90" height="72" rx="8"/>
      <rect x="355" y="214" width="90" height="72" rx="8"/>
      <rect x="455" y="214" width="90" height="72" rx="8"/>
      <rect x="555" y="214" width="90" height="72" rx="8"/>
    </g>
    <rect x="138" y="78" width="120" height="36" rx="10" fill="#202020"/>
    <text x="154" y="102" font-family="Arial, Helvetica, sans-serif" font-weight="700" font-size="24" fill="#ff6767">Mr Watson's</text>
    <text x="270" y="101" font-family="Arial, Helvetica, sans-serif" font-style="italic" font-size="22" fill="#ffd9a8">Cafe</text>
    <text x="312" y="170" font-family="Arial, Helvetica, sans-serif" font-size="56" font-weight="800" fill="#db2b2b">Mr Watsons</text>
    <text x="575" y="170" font-family="Arial, Helvetica, sans-serif" font-size="42" font-style="italic" fill="#f7d2a0">Cafe</text>
    <circle cx="220" cy="382" r="51" fill="#1d1d1d"/>
    <circle cx="220" cy="382" r="24" fill="#9ca3aa"/>
    <circle cx="625" cy="382" r="51" fill="#1d1d1d"/>
    <circle cx="625" cy="382" r="24" fill="#9ca3aa"/>
    <circle cx="116" cy="383" r="38" fill="#1d1d1d"/>
    <circle cx="116" cy="383" r="17" fill="#9ca3aa"/>
    <rect x="88" y="188" width="20" height="32" rx="6" fill="#f2d32f"/>
    <rect x="697" y="288" width="38" height="17" rx="7" fill="#ae1d1d"/>
    <rect x="697" y="313" width="38" height="17" rx="7" fill="#ffefef"/>
  </g>
</svg>
