<svg viewBox="0 0 128 128" xmlns="http://www.w3.org/2000/svg">
  <g fill="#fff" stroke="currentColor" stroke-width="7" stroke-linecap="round" stroke-linejoin="round">
    <circle cx="64" cy="64" r="30"/>
    <path d="M64 63c-14-11-17-25-8-35 10 6 14 18 8 35Z"/>
    <path d="M66 65c13-12 27-14 35-5-7 10-20 13-35 5Z"/>
    <path d="M62 66c-16 5-29 1-35-11 12-6 26-2 35 11Z"/>
    <path d="M63 68c-8 15-20 20-33 15 4-12 16-19 33-15Z"/>
    <path d="M66 68c16 3 27 12 27 25-13 2-25-5-27-25Z"/>
    <circle cx="64" cy="64" r="8"/>
  </g>
</svg>
