<svg viewBox="0 0 128 128" xmlns="http://www.w3.org/2000/svg">
  <g fill="#fff" stroke="currentColor" stroke-width="4" stroke-linecap="round" stroke-linejoin="round">
    <circle cx="64" cy="64" r="29"/>
    <path d="M64 61c-15-12-18-26-8-37 11 7 15 20 8 37Z"/>
    <path d="M68 64c14-13 29-15 38-5-8 11-22 14-38 5Z"/>
    <path d="M60 66c-17 6-31 2-38-11 13-7 28-3 38 11Z"/>
    <path d="M63 70c-9 16-22 21-36 16 5-13 18-20 36-16Z"/>
    <path d="M68 69c17 4 28 13 28 27-14 2-26-6-28-27Z"/>
    <circle cx="64" cy="64" r="7"/>
  </g>
</svg>
